#N canvas 474 164 956 777 10;
#X obj 103 55 bandeja-musica;
#X obj 103 77 diy2-scale;
#X obj 103 99 dsp;
#X obj 103 121 line2;
#X obj 103 143 line-int;
#X obj 103 165 line-int-loop;
#X obj 103 187 line-log;
#X obj 103 209 line-log-inv;
#X obj 103 231 lin-eq-conv;
#X obj 103 253 lin-eq-conv2;
#X obj 103 275 lin-eq-conv-clip;
#X obj 103 297 print2;
#X obj 103 319 readsf.meh~;
#X obj 103 341 readsf.meh~-con-numatoms;
#X obj 103 363 rid-of-z;
#X obj 103 385 rid-of-z-0;
#X obj 103 407 rt;
#X obj 103 429 sendOSC;
#X obj 103 451 spigot2~;
#X obj 103 473 spigot3~;
#X obj 103 495 spigot~;
#X obj 103 517 test-ding-pop;
#X obj 103 539 test-latency-meter;
#X obj 103 561 test-volume-compressor;
#X obj 103 583 test-wav;
#X obj 103 605 toggle2;
#X obj 103 647 vlfo.meh;
#X text 223 297 print2.pd;
#X text 186 231 (Tiene help);
#X text 179 321 (Tiene help);
#X text 172 100 dsp.pd;
#X text 140 608 toggle2.pd;
#N canvas 1 58 944 851 test-arrays 0;
#X obj 43 43 test-array;
#X obj 50 254 test-array2;
#X obj 48 601 test-array3;
#X obj 53 959 test-array4;
#X restore 390 54 pd test-arrays;
#X obj 400 188 list2symbol;
#X obj 400 167 float2symbol;
#X text 498 162 Estos son abstracts que mando Jack de pd-list;
#X text 498 176 list2symbol es un abstract \, pero esta tomando el
external!!;
#X connect 3 0 4 0;
#X connect 4 0 5 0;
#X connect 5 0 6 0;
#X connect 6 0 7 0;
#X connect 7 0 8 0;
#X connect 8 0 9 0;
#X connect 9 0 10 0;
#X connect 10 0 11 0;
#X connect 12 0 13 0;
#X connect 13 0 14 0;
#X connect 14 0 15 0;
#X connect 15 0 16 0;
#X connect 16 0 17 0;
#X connect 17 0 18 0;
#X connect 18 0 19 0;
#X connect 19 0 20 0;
#X connect 25 0 26 0;
