#N canvas 233 228 784 761 12;
#X obj 392 41 symbol;
#X obj 185 458 line~;
#X obj 11 508 *~;
#X obj 49 508 *~;
#X msg 392 148 1;
#X text 425 149 Volumen Max;
#X msg 10 206 stop;
#X msg 75 125 \$1 \$2;
#X obj 127 -8 bng 15 250 50 0 empty empty empty 17 7 0 10 -262144 -1
-1;
#X obj 72 -9 bng 15 250 50 0 empty empty empty 17 7 0 10 -262144 -1
-1;
#X obj 25 -3 bng 15 250 50 0 empty empty empty 17 7 0 10 -262144 -1
-1;
#X symbolatom 399 67 30 0 0 0 - - -;
#X obj 18 236 bng 15 250 50 0 empty empty empty 17 7 0 10 -262144 -1
-1;
#X msg 392 91 open ./audio/\$1.wav \, start;
#X msg 212 13 start;
#X msg -129 6 \$1;
#X obj -129 64 route 1;
#X obj -129 32 == 0;
#X obj -97 132 float;
#X msg -65 42 \$2;
#X obj -129 98 t b b;
#X obj -115 166 del;
#X msg -27 47 stop;
#X obj -67 -14 t a a b a;
#X obj 390 -27 bng 15 250 50 0 empty empty empty 17 7 0 10 -262144
-1 -1;
#X obj 75 34 unpack;
#X obj 75 65 line-log;
#X obj 75 95 pack;
#X text 81 13 FADE-log;
#X obj 289 287 print2;
#X msg -31 104 pause;
#X obj 10 282 readsf.meh~;
#X obj 155 38 symbol;
#X msg 155 96 open ./audio/\$1.wav;
#X obj 23 -154 inlet;
#X obj 11 579 outlet~;
#X obj 79 579 outlet~;
#X obj 148 579 outlet;
#X obj 213 583 outlet;
#X obj 392 267 outlet;
#X obj 568 182 outlet;
#X symbolatom 166 66 30 0 0 0 - - -;
#X obj 166 -7 bng 15 250 50 0 empty empty empty 17 7 0 10 -262144 -1
-1;
#X obj 214 -7 bng 15 250 50 0 empty empty empty 17 7 0 10 -262144 -1
-1;
#X obj 185 257 t a a a;
#X obj 267 316 line;
#X obj 293 344 print2;
#N canvas 190 160 818 661 baja-mus-por-voz 0;
#X msg 102 434 \$1 10;
#X obj 441 186 f;
#X obj 441 285 route 0 1;
#X obj 260 398 f;
#X obj 471 387 f;
#X obj 236 122 route 0 1;
#X obj 236 195 f;
#X obj 326 548 hsl 128 15 0 1 0 0 empty empty empty -2 -8 0 10 -262144
-1 -1 12700 1;
#X obj 247 97 tgl 15 0 empty empty empty 17 7 0 10 -262144 -1 -1 0
1;
#X obj 238 487 l;
#X obj 323 515 line;
#X obj 479 26 loadbang;
#X msg 565 58 250;
#X msg 236 313 \$1 \$2;
#X obj 236 274 list append;
#X obj 471 429 list append;
#X obj 479 130 s \$0-baja-vol-hasta;
#X obj 459 221 r \$0-baja-vol-hasta;
#X obj 489 333 r \$0-baja-vol-hasta;
#X obj 565 84 s \$0-baja-vol-tiempo;
#X obj 545 396 r \$0-baja-vol-tiempo;
#X obj 249 231 r \$0-baja-vol-tiempo;
#X obj 60 113 t f f f f;
#X obj 441 253 >;
#X msg 471 458 \$1 \$2;
#X text 562 421 Baja del volumen desde \; en el que este \; (mayor
al threshold) \; hasta el threshold;
#X obj 238 609 outlet;
#X obj 60 47 inlet;
#X obj 236 68 r \$1-detecta-baja-musica;
#X obj 277 585 print2;
#X obj 102 361 line-log;
#X obj 489 357 line-log;
#X msg 479 104 0.8;
#X connect 0 0 9 0;
#X connect 1 0 23 0;
#X connect 2 0 3 0;
#X connect 2 1 4 0;
#X connect 3 0 0 0;
#X connect 4 0 15 0;
#X connect 5 0 6 0;
#X connect 5 1 1 0;
#X connect 6 0 14 0;
#X connect 9 0 10 0;
#X connect 9 0 26 0;
#X connect 9 0 29 0;
#X connect 10 0 7 0;
#X connect 11 0 32 0;
#X connect 11 0 12 0;
#X connect 12 0 19 0;
#X connect 13 0 9 0;
#X connect 14 0 13 0;
#X connect 15 0 24 0;
#X connect 17 0 23 1;
#X connect 18 0 31 0;
#X connect 20 0 15 1;
#X connect 21 0 14 1;
#X connect 22 0 30 0;
#X connect 22 1 3 1;
#X connect 22 2 6 1;
#X connect 22 3 1 1;
#X connect 23 0 2 0;
#X connect 24 0 9 0;
#X connect 27 0 22 0;
#X connect 28 0 5 0;
#X connect 28 0 8 0;
#X connect 30 0 0 0;
#X connect 31 0 4 1;
#X connect 32 0 16 0;
#X restore 267 384 pd baja-mus-por-voz;
#X obj 267 452 line;
#X obj 267 484 print2;
#X obj 23 -104 route vol fade stop pausa open start;
#X obj 261 -32 bng 15 250 50 0 empty empty empty 17 7 0 10 -262144
-1 -1;
#X obj 124 335 line-log;
#X text 129 315 Volumen directo;
#X obj 123 272 t f f;
#X text 275 363 llega lineal;
#X text 275 403 sale log en lista;
#X connect 0 0 13 0;
#X connect 0 0 11 0;
#X connect 0 0 40 0;
#X connect 1 0 2 1;
#X connect 1 0 3 1;
#X connect 2 0 35 0;
#X connect 3 0 36 0;
#X connect 4 0 39 0;
#X connect 4 0 44 0;
#X connect 6 0 12 0;
#X connect 6 0 31 0;
#X connect 7 0 44 0;
#X connect 13 0 4 0;
#X connect 13 0 31 0;
#X connect 14 0 31 0;
#X connect 15 0 17 0;
#X connect 16 0 20 0;
#X connect 17 0 16 0;
#X connect 18 0 21 1;
#X connect 19 0 18 1;
#X connect 20 0 21 0;
#X connect 20 1 18 0;
#X connect 21 0 6 0;
#X connect 22 0 21 0;
#X connect 23 0 15 0;
#X connect 23 1 19 0;
#X connect 23 2 22 0;
#X connect 23 3 25 0;
#X connect 24 0 0 0;
#X connect 25 0 26 0;
#X connect 25 1 27 1;
#X connect 26 0 27 0;
#X connect 27 0 7 0;
#X connect 30 0 31 0;
#X connect 31 0 2 0;
#X connect 31 1 3 0;
#X connect 31 2 37 0;
#X connect 31 6 38 0;
#X connect 32 0 33 0;
#X connect 32 0 41 0;
#X connect 33 0 31 0;
#X connect 34 0 50 0;
#X connect 44 1 45 0;
#X connect 44 2 29 0;
#X connect 45 0 46 0;
#X connect 45 0 47 0;
#X connect 47 0 1 0;
#X connect 47 0 48 0;
#X connect 48 0 49 0;
#X connect 50 0 10 0;
#X connect 50 0 44 0;
#X connect 50 0 54 0;
#X connect 50 1 9 0;
#X connect 50 1 23 0;
#X connect 50 2 8 0;
#X connect 50 2 6 0;
#X connect 50 3 42 0;
#X connect 50 3 30 0;
#X connect 50 4 43 0;
#X connect 50 4 32 0;
#X connect 50 5 14 0;
#X connect 50 5 51 0;
#X connect 50 6 0 0;
#X connect 52 0 1 0;
#X connect 54 0 52 0;
#X connect 54 1 45 0;
