#N canvas 273 99 903 637 12;
#X obj -16 295 readsf~ 2;
#X msg 231 229 stop;
#X msg 45 229 start;
#X obj -16 574 outlet~;
#X obj 44 574 outlet~;
#X obj 534 583 outlet;
#X obj 413 364 timer;
#X obj -12 4 inlet;
#X msg 105 229 open \$1 \, start;
#X msg -16 229 open \$1;
#X obj 107 465 switch~;
#X obj 107 435 pipe 8;
#X obj 62 405 t f f;
#X obj 62 465 line~;
#X obj 44 532 *~;
#X msg 62 435 \$1 5;
#X obj -16 532 *~;
#X obj -16 38 route open start open-start pause resume stop;
#X msg 62 375 0;
#X msg 102 375 1;
#X obj 474 507 mod 60;
#X obj 414 507 div 60;
#X obj 414 444 / 1000;
#X obj 414 464 t f f f;
#X floatatom 534 537 0 0 0 0 - - -;
#X floatatom 474 537 0 0 0 0 - - -;
#X floatatom 414 537 0 0 0 0 - - -;
#X obj 534 437 t f f;
#X obj 566 457 int;
#X obj 534 477 -;
#X obj 534 497 * 1000;
#X obj 534 517 int;
#X obj 327 298 f;
#X obj 205 105 t b b b b;
#X obj 414 424 +;
#X obj 309 364 f;
#X msg 489 274 stop;
#X obj 295 105 t b b b b;
#X obj 327 334 +;
#X obj 309 394 t f f;
#X obj 413 278 t b b;
#X obj 54 77 bng 15 250 50 0 empty empty empty 17 7 0 10 -262144 -1
-1;
#X obj 129 70 bng 15 250 50 0 empty empty empty 17 7 0 10 -262144 -1
-1;
#X obj 209 77 bng 15 250 50 0 empty empty empty 17 7 0 10 -262144 -1
-1;
#X obj 300 74 bng 15 250 50 0 empty empty empty 17 7 0 10 -262144 -1
-1;
#X obj 380 70 bng 15 250 50 0 empty empty empty 17 7 0 10 -262144 -1
-1;
#X obj 429 194 t b b b;
#X msg 365 278 0;
#X obj 489 344 metro 10;
#X obj 474 583 outlet;
#X obj 414 583 outlet;
#X obj 230 530 outlet;
#X msg 230 425 stopped;
#X msg 230 395 playing;
#X msg 230 455 paused;
#X msg 230 365 loaded;
#X obj -16 105 t a b;
#X obj 45 105 t b b b b;
#X obj 125 105 t b b b b;
#X obj 385 105 t b b b b;
#X connect 0 0 16 0;
#X connect 0 1 14 0;
#X connect 1 0 0 0;
#X connect 2 0 0 0;
#X connect 6 0 34 0;
#X connect 6 0 38 1;
#X connect 7 0 17 0;
#X connect 8 0 0 0;
#X connect 9 0 0 0;
#X connect 11 0 10 0;
#X connect 12 0 15 0;
#X connect 12 1 11 0;
#X connect 13 0 14 1;
#X connect 13 0 16 1;
#X connect 14 0 4 0;
#X connect 15 0 13 0;
#X connect 16 0 3 0;
#X connect 17 0 56 0;
#X connect 17 1 57 0;
#X connect 17 2 58 0;
#X connect 17 3 33 0;
#X connect 17 4 37 0;
#X connect 17 5 59 0;
#X connect 18 0 12 0;
#X connect 19 0 12 0;
#X connect 20 0 25 0;
#X connect 21 0 26 0;
#X connect 22 0 23 0;
#X connect 23 0 21 0;
#X connect 23 1 20 0;
#X connect 23 2 27 0;
#X connect 24 0 5 0;
#X connect 25 0 49 0;
#X connect 26 0 50 0;
#X connect 27 0 29 0;
#X connect 27 1 28 0;
#X connect 28 0 29 1;
#X connect 29 0 30 0;
#X connect 30 0 31 0;
#X connect 31 0 24 0;
#X connect 32 0 38 0;
#X connect 33 0 18 0;
#X connect 33 1 32 0;
#X connect 33 2 36 0;
#X connect 33 3 54 0;
#X connect 34 0 22 0;
#X connect 35 0 39 0;
#X connect 36 0 48 0;
#X connect 37 0 19 0;
#X connect 37 1 40 0;
#X connect 37 2 35 0;
#X connect 37 3 53 0;
#X connect 38 0 35 1;
#X connect 39 0 34 1;
#X connect 39 1 32 1;
#X connect 40 0 48 0;
#X connect 40 1 6 0;
#X connect 41 0 57 0;
#X connect 42 0 58 0;
#X connect 43 0 33 0;
#X connect 44 0 37 0;
#X connect 45 0 59 0;
#X connect 46 0 47 0;
#X connect 46 1 6 0;
#X connect 46 2 36 0;
#X connect 47 0 32 1;
#X connect 47 0 38 1;
#X connect 47 0 34 1;
#X connect 48 0 6 1;
#X connect 52 0 51 0;
#X connect 53 0 51 0;
#X connect 54 0 51 0;
#X connect 55 0 51 0;
#X connect 56 0 9 0;
#X connect 56 1 55 0;
#X connect 57 0 2 0;
#X connect 57 1 40 0;
#X connect 57 2 53 0;
#X connect 57 3 19 0;
#X connect 58 0 8 0;
#X connect 58 1 40 0;
#X connect 58 2 53 0;
#X connect 58 3 19 0;
#X connect 59 0 1 0;
#X connect 59 1 46 0;
#X connect 59 2 52 0;
#X connect 59 3 18 0;
