#N canvas 355 177 1117 766 12;
#X obj 72 460 readsf~ 2;
#X msg 222 394 stop;
#X msg 133 394 start;
#X obj 72 690 outlet~;
#X obj 132 690 outlet~;
#X obj 798 655 outlet;
#X obj 551 529 timer;
#X msg 72 394 open \$1;
#X obj 255 630 switch~;
#X obj 255 600 pipe 8;
#X obj 210 570 t f f;
#X obj 210 630 line~;
#X obj 132 660 *~;
#X msg 210 600 \$1 5;
#X obj 72 660 *~;
#X msg 210 540 0;
#X msg 250 540 1;
#X obj 738 509 mod 60;
#X obj 678 509 div 60;
#X obj 678 446 / 1000;
#X obj 678 466 t f f f;
#X floatatom 798 589 0 0 0 0 - - -;
#X floatatom 738 539 0 0 0 0 - - -;
#X floatatom 678 539 0 0 0 0 - - -;
#X obj 798 439 t f f;
#X obj 830 469 int;
#X obj 798 499 -;
#X obj 798 529 * 1000;
#X obj 798 559 int;
#X obj 475 463 f;
#X obj 551 589 +;
#X obj 457 529 f;
#X msg 597 443 stop;
#X obj 475 499 +;
#X obj 457 559 t f f;
#X obj 551 443 t b b;
#X obj 513 339 t b b b;
#X msg 513 443 0;
#X obj 597 509 metro 10;
#X obj 738 655 outlet;
#X obj 678 655 outlet;
#X obj 338 676 outlet;
#X obj 72 93 route open start pause resume stop;
#X msg 872 619 \$1:\$2;
#X obj 872 680 outlet;
#X obj 872 649 symbol;
#X msg 338 530 symbol loaded;
#X msg 338 560 symbol playing;
#X msg 338 650 symbol stopped;
#X msg 338 590 symbol paused;
#X obj 1055 407 < 10;
#X obj 974 387 t f f;
#X obj 974 439 list prepend;
#X obj 974 469 route 0 1;
#X obj 872 589 pack f segundos;
#X msg 1004 499 0\$1;
#X text 666 683 minutos;
#X text 736 683 segundos;
#X text 806 682 ms;
#X text 876 703 minutos:segundos;
#X text 336 698 status;
#X msg 974 499 \$1;
#X obj 974 529 makefilename %d;
#X obj 1004 569 symbol;
#X obj 72 354 symbol;
#X obj 363 230 spigot;
#X msg 402 200 1;
#X msg 432 200 0;
#X obj 133 270 t b b b b b;
#X obj 493 270 t b b b b b b;
#X obj 133 318 list prepend 1;
#X obj 133 348 route 0 1;
#X msg 581 298 0;
#X obj 44 272 t b b b b b;
#X msg 146 234 1;
#X obj 72 181 t a b b b b;
#X obj 650 108 loadbang;
#X obj 650 210 \$1;
#X obj 731 260 == 0;
#X msg 680 349 10;
#X obj 650 319 route 0 1;
#X obj 650 289 list prepend;
#X obj 650 240 t f f;
#X msg 338 620 symbol end;
#X msg 318 128 1;
#X msg 348 128 0;
#X obj 185 247 bng 15 250 50 0 empty empty empty 17 7 0 10 -262144
-1 -1;
#X obj 223 185 route 0 1;
#X obj 223 270 t b b b b b b;
#X obj 363 270 t b b b b b b;
#X obj 223 158 list prepend 0;
#X obj 132 490 t b b;
#X obj 72 23 inlet;
#X obj 72 59 t a a;
#X obj 72 424 t a a a;
#X connect 0 0 14 0;
#X connect 0 1 12 0;
#X connect 0 2 91 0;
#X connect 1 0 0 0;
#X connect 2 0 0 0;
#X connect 6 0 30 0;
#X connect 6 0 33 1;
#X connect 7 0 94 0;
#X connect 9 0 8 0;
#X connect 10 0 13 0;
#X connect 10 1 9 0;
#X connect 11 0 12 1;
#X connect 11 0 14 1;
#X connect 12 0 4 0;
#X connect 13 0 11 0;
#X connect 14 0 3 0;
#X connect 15 0 10 0;
#X connect 16 0 10 0;
#X connect 17 0 22 0;
#X connect 18 0 23 0;
#X connect 19 0 20 0;
#X connect 20 0 18 0;
#X connect 20 1 17 0;
#X connect 20 2 24 0;
#X connect 21 0 5 0;
#X connect 22 0 39 0;
#X connect 22 0 51 0;
#X connect 23 0 40 0;
#X connect 23 0 54 0;
#X connect 24 0 26 0;
#X connect 24 1 25 0;
#X connect 25 0 26 1;
#X connect 26 0 27 0;
#X connect 27 0 28 0;
#X connect 28 0 21 0;
#X connect 29 0 33 0;
#X connect 30 0 19 0;
#X connect 31 0 34 0;
#X connect 32 0 38 0;
#X connect 33 0 31 1;
#X connect 34 0 30 1;
#X connect 34 1 29 1;
#X connect 35 0 38 0;
#X connect 35 1 6 0;
#X connect 36 0 37 0;
#X connect 36 1 6 0;
#X connect 36 2 32 0;
#X connect 37 0 29 1;
#X connect 37 0 33 1;
#X connect 37 0 30 1;
#X connect 38 0 6 1;
#X connect 42 0 75 0;
#X connect 42 1 68 0;
#X connect 42 2 90 0;
#X connect 42 3 65 0;
#X connect 42 4 69 0;
#X connect 43 0 45 0;
#X connect 45 0 44 0;
#X connect 46 0 41 0;
#X connect 47 0 41 0;
#X connect 48 0 41 0;
#X connect 49 0 41 0;
#X connect 50 0 52 1;
#X connect 51 0 52 0;
#X connect 51 1 50 0;
#X connect 52 0 53 0;
#X connect 53 0 61 0;
#X connect 53 1 55 0;
#X connect 54 0 43 0;
#X connect 55 0 63 0;
#X connect 61 0 62 0;
#X connect 62 0 54 1;
#X connect 63 0 54 1;
#X connect 64 0 7 0;
#X connect 65 0 89 0;
#X connect 66 0 65 1;
#X connect 67 0 65 1;
#X connect 68 0 70 0;
#X connect 68 1 35 0;
#X connect 68 2 47 0;
#X connect 68 3 16 0;
#X connect 68 4 67 0;
#X connect 69 0 1 0;
#X connect 69 1 36 0;
#X connect 69 2 15 0;
#X connect 69 3 48 0;
#X connect 69 4 67 0;
#X connect 69 5 72 0;
#X connect 70 0 71 0;
#X connect 71 0 73 0;
#X connect 71 1 2 0;
#X connect 72 0 70 1;
#X connect 73 0 2 0;
#X connect 73 1 64 0;
#X connect 73 2 47 0;
#X connect 73 4 67 0;
#X connect 74 0 70 1;
#X connect 75 0 64 0;
#X connect 75 1 46 0;
#X connect 75 2 69 0;
#X connect 75 3 67 0;
#X connect 75 4 74 0;
#X connect 76 0 77 0;
#X connect 77 0 82 0;
#X connect 78 0 81 1;
#X connect 79 0 38 1;
#X connect 80 0 38 1;
#X connect 80 1 79 0;
#X connect 81 0 80 0;
#X connect 82 0 81 0;
#X connect 82 1 78 0;
#X connect 83 0 41 0;
#X connect 84 0 90 1;
#X connect 85 0 90 1;
#X connect 87 0 88 0;
#X connect 87 1 89 0;
#X connect 88 0 15 0;
#X connect 88 1 29 0;
#X connect 88 2 32 0;
#X connect 88 3 49 0;
#X connect 88 4 66 0;
#X connect 88 5 84 0;
#X connect 89 0 16 0;
#X connect 89 1 35 0;
#X connect 89 2 31 0;
#X connect 89 3 47 0;
#X connect 89 4 67 0;
#X connect 89 5 85 0;
#X connect 90 0 87 0;
#X connect 91 0 83 0;
#X connect 91 1 69 0;
#X connect 92 0 93 0;
#X connect 93 0 42 0;
#X connect 94 0 0 0;
