#N canvas 1063 668 591 350 12;
#X obj 113 34 inlet;
#X obj 167 114 symbol \$1;
#X obj 245 114 symbol \$2;
#X obj 167 147 list;
#X obj 113 256 s osc-to-tab;
#X obj 193 34 bng 15 250 50 0 empty empty empty 17 7 0 10 -262144 -1
-1;
#X obj 113 67 t a b b b;
#X msg 167 213 set \$1 \$2;
#X connect 0 0 6 0;
#X connect 1 0 3 0;
#X connect 2 0 3 1;
#X connect 3 0 7 0;
#X connect 5 0 6 0;
#X connect 6 0 4 0;
#X connect 6 1 1 0;
#X connect 6 2 2 0;
#X connect 7 0 4 0;
