#N canvas 1065 666 589 350 12;
#X obj 113 34 inlet;
#X obj 167 114 symbol \$1;
#X obj 245 114 symbol \$2;
#X obj 167 147 list;
#X obj 113 256 s osc-to-tab;
#X obj 193 34 bng 15 250 50 0 empty empty empty 17 7 0 10 -262144 -1
-1;
#X msg 167 213 set \$1 \$2 \$3;
#X obj 113 67 t a b b b;
#X obj 167 180 list;
#X obj 334 114 symbol \$3;
#X connect 0 0 7 0;
#X connect 1 0 3 0;
#X connect 2 0 3 1;
#X connect 3 0 8 0;
#X connect 5 0 7 0;
#X connect 6 0 4 0;
#X connect 7 0 4 0;
#X connect 7 1 1 0;
#X connect 7 2 2 0;
#X connect 7 3 9 0;
#X connect 8 0 6 0;
#X connect 9 0 8 1;
