#N canvas 807 680 998 350 12;
#X obj 726 111 symbol \$1;
#X obj 804 111 symbol \$2;
#X obj 726 144 list;
#X obj 752 31 bng 15 250 50 0 empty empty empty 17 7 0 10 -262144 -1
-1;
#X msg 726 210 set \$1 \$2 \$3;
#X obj 672 64 t a b b b;
#X obj 726 177 list;
#X obj 441 261 s OSC;
#X obj 672 210 list;
#X obj 893 111 symbol \$3;
#X obj 495 118 symbol \$1;
#X obj 573 118 symbol \$2;
#X obj 495 151 list;
#X obj 521 38 bng 15 250 50 0 empty empty empty 17 7 0 10 -262144 -1
-1;
#X obj 441 71 t a b b b;
#X obj 441 217 list;
#X msg 495 217 set \$1 \$2;
#X obj 672 262 s OSC;
#X obj 441 19 inlet;
#X obj 201 261 s OSC;
#X obj 255 118 symbol \$1;
#X obj 201 217 list;
#X msg 255 217 set \$1;
#X obj 201 71 t a b;
#X connect 0 0 2 0;
#X connect 1 0 2 1;
#X connect 2 0 6 0;
#X connect 3 0 5 0;
#X connect 4 0 17 0;
#X connect 5 0 8 0;
#X connect 5 1 0 0;
#X connect 5 2 1 0;
#X connect 5 3 9 0;
#X connect 6 0 4 0;
#X connect 8 0 17 0;
#X connect 9 0 6 1;
#X connect 10 0 12 0;
#X connect 11 0 12 1;
#X connect 12 0 16 0;
#X connect 13 0 14 0;
#X connect 14 0 15 0;
#X connect 14 1 10 0;
#X connect 14 2 11 0;
#X connect 15 0 7 0;
#X connect 16 0 7 0;
#X connect 18 0 5 0;
#X connect 20 0 22 0;
#X connect 21 0 19 0;
#X connect 22 0 19 0;
#X connect 23 0 21 0;
#X connect 23 1 20 0;
