#N canvas 1 88 649 568 10;
#X obj 425 255 loadbang;
#X obj 425 304 soundfiler;
#X msg 425 279 read ./ding.wav sample-table;
#N canvas 1 90 450 300 (subpatch) 0;
#X array sample-table 44104 float 0;
#X coords 0 1.02 44103 -1.02 200 130 1;
#X restore 401 38 graph;
#X obj 282 402 hip~ 5;
#X obj 282 370 tabread4~ sample-table;
#X obj 282 507 s~ \$0-test-ding;
#X obj 281 461 *~ 1;
#X obj 282 335 line~ 44100 1000;
#X obj 426 426 ../mmb/number.mmb~;
#X msg 282 282 0 \, 44100 1000;
#X msg 337 434 0.1;
#X connect 0 0 2 0;
#X connect 2 0 1 0;
#X connect 4 0 7 0;
#X connect 5 0 4 0;
#X connect 5 0 9 0;
#X connect 7 0 6 0;
#X connect 8 0 5 0;
#X connect 10 0 8 0;
#X connect 11 0 7 1;
